<?xml version="1.0" encoding="UTF-8" standalone="no"?>
<!-- Created with Inkscape (http://www.inkscape.org/) -->

<svg
   xmlns:dc="http://purl.org/dc/elements/1.1/"
   xmlns:cc="http://creativecommons.org/ns#"
   xmlns:rdf="http://www.w3.org/1999/02/22-rdf-syntax-ns#"
   xmlns:svg="http://www.w3.org/2000/svg"
   xmlns="http://www.w3.org/2000/svg"
   xmlns:xlink="http://www.w3.org/1999/xlink"
   xmlns:sodipodi="http://sodipodi.sourceforge.net/DTD/sodipodi-0.dtd"
   xmlns:inkscape="http://www.inkscape.org/namespaces/inkscape"
   width="297mm"
   height="210mm"
   viewBox="0 0 297 210"
   version="1.1"
   id="svg8"
   inkscape:version="0.92.3 (2405546, 2018-03-11)"
   sodipodi:docname="index.svg">
  <defs
     id="defs2" />
  <sodipodi:namedview
     id="base"
     pagecolor="#ffffff"
     bordercolor="#666666"
     borderopacity="1.0"
     inkscape:pageopacity="0.0"
     inkscape:pageshadow="2"
     inkscape:zoom="1"
     inkscape:cx="559.87427"
     inkscape:cy="368.06096"
     inkscape:document-units="mm"
     inkscape:current-layer="layer1"
     showgrid="false"
     inkscape:window-width="1920"
     inkscape:window-height="1015"
     inkscape:window-x="1440"
     inkscape:window-y="32"
     inkscape:window-maximized="1" />
  <metadata
     id="metadata5">
    <rdf:RDF>
      <cc:Work
         rdf:about="">
        <dc:format>image/svg+xml</dc:format>
        <dc:type
           rdf:resource="http://purl.org/dc/dcmitype/StillImage" />
        <dc:title />
      </cc:Work>
    </rdf:RDF>
  </metadata>
  <g
     inkscape:label="圖層 1"
     inkscape:groupmode="layer"
     id="layer1"
     transform="translate(0,-87)">
    <rect
       style="opacity:1;vector-effect:none;fill:#fffae2;fill-opacity:1;fill-rule:nonzero;stroke:none;stroke-width:1.37744224;stroke-linecap:butt;stroke-linejoin:round;stroke-miterlimit:4;stroke-dasharray:none;stroke-dashoffset:0;stroke-opacity:0.83225804"
       id="rect834"
       width="297.16983"
       height="209.47169"
       x="0.26415098"
       y="87.264153" />
    <rect
       style="opacity:1;vector-effect:none;fill:none;fill-opacity:1;fill-rule:nonzero;stroke:#474747;stroke-width:1.02294314;stroke-linecap:butt;stroke-linejoin:round;stroke-miterlimit:4;stroke-dasharray:none;stroke-dashoffset:0;stroke-opacity:1"
       id="rect836"
       width="297.16983"
       height="21.075531"
       x="0.26415098"
       y="87.264153" />
    <text
       xml:space="preserve"
       style="font-style:normal;font-weight:normal;font-size:10.58333302px;line-height:1.25;font-family:sans-serif;letter-spacing:0px;word-spacing:0px;fill:#000000;fill-opacity:1;stroke:none;stroke-width:0.26458332"
       x="8.4528303"
       y="102.05661"
       id="text840"><tspan
         sodipodi:role="line"
         id="tspan838"
         x="8.4528303"
         y="102.05661"
         style="stroke-width:0.26458332">Logo</tspan></text>
    <circle
       style="opacity:1;vector-effect:none;fill:none;fill-opacity:1;fill-rule:nonzero;stroke:#474747;stroke-width:1;stroke-linecap:butt;stroke-linejoin:round;stroke-miterlimit:4;stroke-dasharray:none;stroke-dashoffset:0;stroke-opacity:1"
       id="path844"
       cx="272.02689"
       cy="98.031204"
       r="7.6706357" />
    <g
       id="g936"
       transform="translate(-2.4418605,-0.48837209)">
      <path
         inkscape:connector-curvature="0"
         id="path910"
         d="m 285.41927,93.733859 h 8.46666"
         style="fill:none;stroke:#2f2f2f;stroke-width:1.16499996;stroke-linecap:butt;stroke-linejoin:miter;stroke-miterlimit:4;stroke-dasharray:none;stroke-opacity:1" />
      <path
         inkscape:connector-curvature="0"
         id="path910-3"
         d="m 285.28698,98.231771 h 8.46666"
         style="fill:none;stroke:#2f2f2f;stroke-width:1.16499996;stroke-linecap:butt;stroke-linejoin:miter;stroke-miterlimit:4;stroke-dasharray:none;stroke-opacity:1" />
      <path
         inkscape:connector-curvature="0"
         id="path910-6"
         d="m 285.41928,102.66354 h 8.46666"
         style="fill:none;stroke:#2f2f2f;stroke-width:1.16499996;stroke-linecap:butt;stroke-linejoin:miter;stroke-miterlimit:4;stroke-dasharray:none;stroke-opacity:1" />
    </g>
    <g
       id="g944"
       transform="translate(-26.429952,33.842459)">
      <circle
         r="3.4186046"
         cy="62.581402"
         cx="196.32558"
         id="path938"
         style="opacity:1;vector-effect:none;fill:none;fill-opacity:1;fill-rule:nonzero;stroke:#2f2f2f;stroke-width:1.16499996;stroke-linecap:butt;stroke-linejoin:round;stroke-miterlimit:4;stroke-dasharray:none;stroke-dashoffset:0;stroke-opacity:1" />
      <path
         inkscape:connector-curvature="0"
         id="path940"
         d="m 198.52228,65.282757 4.18714,4.187141"
         style="fill:none;stroke:#353535;stroke-width:1.36500001;stroke-linecap:butt;stroke-linejoin:miter;stroke-miterlimit:4;stroke-dasharray:none;stroke-opacity:1" />
    </g>
    <rect
       style="opacity:1;vector-effect:none;fill:#ffffff;fill-opacity:1;fill-rule:nonzero;stroke:#353535;stroke-width:0.66500002;stroke-linecap:butt;stroke-linejoin:round;stroke-miterlimit:4;stroke-dasharray:none;stroke-dashoffset:0;stroke-opacity:1"
       id="rect946"
       width="56.461655"
       height="11.568596"
       x="179.45467"
       y="92.272926" />
    <rect
       style="opacity:1;vector-effect:none;fill:none;fill-opacity:1;fill-rule:nonzero;stroke:#353535;stroke-width:0.66499996;stroke-linecap:butt;stroke-linejoin:round;stroke-miterlimit:4;stroke-dasharray:none;stroke-dashoffset:0;stroke-opacity:1"
       id="rect948"
       width="81.703072"
       height="86.175186"
       x="215.35674"
       y="211.4234" />
    <text
       xml:space="preserve"
       style="font-style:normal;font-weight:normal;font-size:7.05555534px;line-height:1.25;font-family:sans-serif;letter-spacing:0px;word-spacing:0px;fill:#000000;fill-opacity:1;stroke:none;stroke-width:0.26458332"
       x="221.09052"
       y="220.79143"
       id="text952"><tspan
         sodipodi:role="line"
         id="tspan950"
         x="221.09052"
         y="220.79143"
         style="font-size:7.05555534px;stroke-width:0.26458332">最近的活動</tspan></text>
    <rect
       style="opacity:1;vector-effect:none;fill:none;fill-opacity:1;fill-rule:nonzero;stroke:#353535;stroke-width:0.765;stroke-linecap:butt;stroke-linejoin:round;stroke-miterlimit:4;stroke-dasharray:none;stroke-dashoffset:0;stroke-opacity:1"
       id="rect954"
       width="81.703079"
       height="77.478294"
       x="215.35674"
       y="297.59857" />
    <rect
       style="opacity:1;vector-effect:none;fill:none;fill-opacity:1;fill-rule:nonzero;stroke:#353535;stroke-width:0.66499996;stroke-linecap:butt;stroke-linejoin:round;stroke-miterlimit:4;stroke-dasharray:none;stroke-dashoffset:0;stroke-opacity:1"
       id="rect956"
       width="296.79565"
       height="103.08372"
       x="0.26415098"
       y="108.33968" />
    <text
       xml:space="preserve"
       style="font-style:normal;font-weight:normal;font-size:7.76111126px;line-height:1.25;font-family:sans-serif;letter-spacing:0px;word-spacing:0px;fill:#000000;fill-opacity:1;stroke:none;stroke-width:0.26458332"
       x="4.4879537"
       y="120.74439"
       id="text960"><tspan
         sodipodi:role="line"
         id="tspan958"
         x="4.4879537"
         y="120.74439"
         style="font-size:7.76111126px;stroke-width:0.26458332">Next Challenge:</tspan></text>
    <rect
       style="opacity:1;vector-effect:none;fill:#ffffff;fill-opacity:1;fill-rule:nonzero;stroke:#353535;stroke-width:0.66499996;stroke-linecap:butt;stroke-linejoin:round;stroke-miterlimit:4;stroke-dasharray:none;stroke-dashoffset:0;stroke-opacity:1"
       id="rect962"
       width="32.808334"
       height="12.7"
       x="-385.4259"
       y="283.73569" />
    <text
       xml:space="preserve"
       style="font-style:normal;font-weight:normal;font-size:10.58333302px;line-height:1.25;font-family:sans-serif;letter-spacing:0px;word-spacing:0px;fill:#2e2e2e;fill-opacity:1;stroke:none;stroke-width:0.26458332"
       x="-383.0145"
       y="294.00659"
       id="text966"><tspan
         sodipodi:role="line"
         id="tspan964"
         x="-383.0145"
         y="294.00659"
         style="fill:#2e2e2e;fill-opacity:1;stroke-width:0.26458332">drafts</tspan></text>
    <text
       xml:space="preserve"
       style="font-style:normal;font-weight:normal;font-size:7.05555534px;line-height:1.25;font-family:sans-serif;letter-spacing:0px;word-spacing:0px;fill:#000000;fill-opacity:1;stroke:none;stroke-width:0.26458332"
       x="219.66922"
       y="305.93295"
       id="text970"><tspan
         sodipodi:role="line"
         id="tspan968"
         x="219.66922"
         y="305.93295"
         style="font-size:7.05555534px;stroke-width:0.26458332">分類</tspan></text>
    <rect
       style="opacity:1;vector-effect:none;fill:none;fill-opacity:1;fill-rule:nonzero;stroke:#353535;stroke-width:0.66499996;stroke-linecap:butt;stroke-linejoin:round;stroke-miterlimit:4;stroke-dasharray:none;stroke-dashoffset:0;stroke-opacity:1"
       id="rect972"
       width="214.88782"
       height="163.77966"
       x="0.26415098"
       y="211.4234" />
    <text
       xml:space="preserve"
       style="font-style:normal;font-weight:normal;font-size:10.58333302px;line-height:1.25;font-family:sans-serif;letter-spacing:0px;word-spacing:0px;fill:#000000;fill-opacity:1;stroke:none;stroke-width:0.26458332"
       x="-215.90033"
       y="117.76906"
       id="text984"><tspan
         sodipodi:role="line"
         id="tspan982"
         x="-215.90033"
         y="117.76906"
         style="stroke-width:0.26458332">答對音效（答錯不要）</tspan></text>
    <path
       style="fill:none;stroke:#000000;stroke-width:0.26458332px;stroke-linecap:butt;stroke-linejoin:miter;stroke-opacity:1"
       d="m 250.03125,93.40313 c 0.10695,-0.427806 -0.10696,-0.895111 0,-1.322917 0.0386,-0.154248 0.20553,-0.249252 0.26458,-0.396875 0.034,-0.08488 -0.0246,-0.380462 0,-0.396875 0.11603,-0.07735 0.26159,-0.09847 0.39688,-0.132292 0.0428,-0.01069 0.10111,0.03118 0.13229,0 0.11242,-0.112426 0.12824,-0.315072 0.26458,-0.396875 0.11344,-0.06806 0.26458,0 0.39688,0 0.22048,0 0.44097,0 0.66145,0 0.0441,0 0.10111,-0.03118 0.1323,0 0.0697,0.06972 0.0502,0.209888 0.13229,0.264584 0.0734,0.04892 0.1857,-0.03944 0.26458,0 0.0394,0.01972 -0.0312,0.10111 0,0.132291 0.0312,0.03118 0.0882,0 0.13229,0 0.0441,0.0441 0.0977,0.0804 0.13229,0.132292 0.20279,0.304178 0.0618,0.35728 0.26459,0.661458 0.24973,0.374596 0.0849,-0.250722 0.39687,0.529167 0.037,0.09237 -0.0455,0.483647 0,0.529167 0.0312,0.03118 0.10111,-0.03118 0.13229,0 0.0312,0.03118 -0.0139,0.09046 0,0.132291 0.0801,0.240272 0.11322,0.245513 0.26459,0.396875"
       id="path988"
       inkscape:connector-curvature="0" />
    <path
       style="fill:none;stroke:#000000;stroke-width:0.26458332px;stroke-linecap:butt;stroke-linejoin:miter;stroke-opacity:1"
       d="m 254,93.535421 c -0.48507,0 -0.97014,0 -1.45521,0 -0.22049,10e-7 0.44097,10e-7 0.66146,0 1.40837,0 0.20071,0 1.45521,0 0.0882,0 0.17638,0 0.26458,0 0.0441,0 0.10111,-0.03118 0.13229,0 0.0312,0.03118 0,0.08819 0,0.132292 0.13229,0.0441 0.28085,0.05494 0.39688,0.132292 0.0734,0.04892 -0.0394,0.185699 0,0.264583 0.0279,0.05578 0.0882,0.08819 0.13229,0.132292 0,0.132291 -0.026,0.267152 0,0.396875 0.0468,0.234041 0.33008,0.461092 0.39687,0.661458 0.10459,0.203514 -0.0697,0.452287 0,0.661458 0.0197,0.05916 0.1044,0.07651 0.13229,0.132292 0.0197,0.03944 -0.0107,0.08951 0,0.132292 0.0338,0.135284 0.0985,0.26159 0.1323,0.396875 0.0173,0.06939 -0.0226,0.506523 0,0.529166 0.0697,0.06972 0.19486,0.06257 0.26458,0.132292 0.0312,0.03118 0,0.08819 0,0.132292 0,0.176389 0,0.352777 0,0.529166 0,0.132292 0,0.264584 0,0.396875 0,0.0441 -0.0107,0.08951 0,0.132292 0.0338,0.135284 0.0985,0.261591 0.13229,0.396875 0.0288,0.114991 0,0.398359 0,0.529167 0,0.0441 0.0312,0.10111 0,0.132291 -0.0312,0.03118 -0.1216,-0.04278 -0.13229,0 -0.0862,0.344908 -0.093,0.704984 -0.13229,1.058334 -0.005,0.0438 0.0312,0.10111 0,0.13229 -0.0312,0.0312 -0.0882,0 -0.13229,0 -0.0441,0 -0.0882,0 -0.1323,0 -0.35277,0 -0.70555,0 -1.05833,0 -0.13229,0 -0.26458,0 -0.39687,0 -0.1323,0 -0.26639,-0.0217 -0.39688,0 -0.13755,0.0229 -0.26159,0.0985 -0.39687,0.13229 -0.0428,0.0107 -0.0882,0 -0.1323,0 -0.13229,0 -0.26715,-0.0259 -0.39687,0 -0.0967,0.0193 -0.16892,0.10838 -0.26458,0.13229 -0.0856,0.0214 -0.17639,0 -0.26459,0 -0.22048,0 -0.44097,0 -0.66146,0 -0.52916,0 -1.05833,0 -1.5875,0 -0.35277,0 -0.70555,0 -1.05833,0 -0.17639,0 -0.35804,0.0428 -0.52917,0 -0.0605,-0.0151 -0.0765,-0.1044 -0.13229,-0.13229 -0.0394,-0.0197 -0.0882,0 -0.13229,0 -0.0441,0 -0.0882,0 -0.13229,0 -0.26458,0 -0.52917,0 -0.79375,0 -0.0441,0 -0.10111,0.0312 -0.13229,0 -0.0312,-0.0312 0,-0.0882 0,-0.13229 0,-0.17639 0.029,-0.35518 0,-0.52917 -0.0229,-0.13755 -0.11257,-0.258824 -0.13229,-0.396871 -0.0249,-0.174616 0,-0.352777 0,-0.529166 0,-0.308681 0,-0.617361 0,-0.926042 0,-0.08052 -0.0218,-0.971213 0,-1.058333 0.0239,-0.09566 0.10111,-0.171039 0.13229,-0.264583 0.0396,-0.118858 -0.0305,-0.275023 0,-0.396875 0.0338,-0.135285 0.0985,-0.261591 0.13229,-0.396875 0.0107,-0.04278 -0.0139,-0.09046 0,-0.132292 0.0312,-0.09354 0.10837,-0.168923 0.13229,-0.264583 0.001,-0.0044 -7.9e-4,-0.396173 0,-0.396875 0.0697,-0.06972 0.19486,-0.06257 0.26458,-0.132292 0.0624,-0.06236 -0.0394,-0.1857 0,-0.264583 0.0279,-0.05578 0.10441,-0.07651 0.1323,-0.132292 0.0394,-0.07888 -0.0624,-0.20222 0,-0.264583 0.0312,-0.03118 0.10783,0.03669 0.13229,0 0.0773,-0.116028 0.0985,-0.261591 0.13229,-0.396875 0.0107,-0.04278 -0.0312,-0.101111 0,-0.132292 0.0312,-0.03118 0.10111,0.03118 0.13229,0 0.0662,-0.06615 -0.0661,-0.330729 0,-0.396875 0.0624,-0.06236 0.20222,0.06236 0.26458,0 0.0312,-0.03118 -0.0312,-0.10111 0,-0.132292 0.0312,-0.03118 0.0882,0 0.1323,0 0.0882,0 0.17638,0 0.26458,0 0.35278,0 0.70555,0 1.05833,0 0.0869,0 0.32224,0.02488 0.39688,0 0.0935,-0.03118 0.17104,-0.10111 0.26458,-0.132291 0.0665,-0.02217 0.7592,0 0.79375,0 0.35278,0 0.70556,0 1.05833,0 0.1323,0 0.26561,-0.01641 0.39688,0 0.22311,0.02789 0.44097,0.08819 0.66146,0.132291 z"
       id="path994"
       inkscape:connector-curvature="0" />
    <path
       style="fill:none;stroke:#000000;stroke-width:0.26458332px;stroke-linecap:butt;stroke-linejoin:miter;stroke-opacity:1"
       d="m 248.70833,100.67917 c 0.0242,0.56728 -0.0852,1.1761 0.13229,1.71979 -0.0345,0.2795 0.20989,0.0502 0.26459,0.13229 0.0773,0.11603 0.0549,0.28085 0.13229,0.39688 0.0244,0.0367 0.13229,-0.0441 0.13229,0 0,0.0441 -0.16347,-0.0312 -0.13229,0 0.15201,0.15201 0.23396,0.13229 0.39687,0.13229 0.0882,0 0.17639,0 0.26459,0 0.0441,0 0.0956,-0.0245 0.13229,0 0.10377,0.0692 0.15302,0.20881 0.26458,0.26458 0.11832,0.0592 0.26458,0 0.39688,0 0.35277,0 0.70555,0 1.05833,0 0.49221,0 0.76451,0 0.92604,0 0.0596,0 0.35661,0.0201 0.39688,0 0.0558,-0.0279 0.0765,-0.1044 0.13229,-0.13229 0.11832,-0.0592 0.27855,0.0592 0.39687,0 0.0394,-0.0197 -0.0312,-0.10111 0,-0.13229 0.0662,-0.0661 0.33073,0.0662 0.39688,0 0.0312,-0.0312 -0.0312,-0.10111 0,-0.13229 0.11242,-0.11243 0.26968,-0.16919 0.39687,-0.26458 0.0499,-0.0374 0.0804,-0.0977 0.13229,-0.1323 0.0821,-0.0547 0.19486,-0.0626 0.26459,-0.13229 0.0312,-0.0312 -0.0139,-0.0905 0,-0.13229 0.0751,-0.22528 0.14676,-0.45527 0.26458,-0.66146 0.0619,-0.10829 0.1954,-0.1608 0.26458,-0.26458 0.0218,-0.0327 0,-0.46125 0,-0.52917"
       id="path1002"
       inkscape:connector-curvature="0" />
    <text
       xml:space="preserve"
       style="font-style:normal;font-weight:normal;font-size:10.58333302px;line-height:1.25;font-family:sans-serif;letter-spacing:0px;word-spacing:0px;fill:#000000;fill-opacity:1;stroke:none;stroke-width:0.26458332"
       x="104.20839"
       y="101.30525"
       id="text1628"><tspan
         sodipodi:role="line"
         id="tspan1626"
         x="104.20839"
         y="101.30525"
         style="stroke-width:0.26458332">DashBoard</tspan></text>
    <rect
       style="opacity:1;vector-effect:none;fill:#fffff3;fill-opacity:1;fill-rule:nonzero;stroke:#353535;stroke-width:0.2;stroke-linecap:butt;stroke-linejoin:round;stroke-miterlimit:4;stroke-dasharray:none;stroke-dashoffset:0;stroke-opacity:1"
       id="rect1630"
       width="86.783333"
       height="73.554169"
       x="11.641666"
       y="129.78334" />
    <use
       x="0"
       y="0"
       xlink:href="#rect1630"
       id="use1659"
       transform="translate(190.5,-0.79375)"
       width="100%"
       height="100%" />
    <use
       x="0"
       y="0"
       xlink:href="#use1659"
       id="use1661"
       transform="translate(-95.514583,0.52916666)"
       width="100%"
       height="100%" />
    <text
       xml:space="preserve"
       style="font-style:normal;font-weight:normal;font-size:10.58333302px;line-height:1.25;font-family:sans-serif;letter-spacing:0px;word-spacing:0px;fill:#000000;fill-opacity:1;stroke:none;stroke-width:0.26458332"
       x="5.8208332"
       y="225.29791"
       id="text1665"><tspan
         sodipodi:role="line"
         id="tspan1663"
         x="5.8208332"
         y="225.29791"
         style="stroke-width:0.26458332">我的題目</tspan></text>
    <rect
       style="opacity:1;vector-effect:none;fill:#fffff3;fill-opacity:1;fill-rule:nonzero;stroke:#353535;stroke-width:0.2;stroke-linecap:butt;stroke-linejoin:round;stroke-miterlimit:4;stroke-dasharray:none;stroke-dashoffset:0;stroke-opacity:1"
       id="rect1630-3"
       width="194.20416"
       height="44.979183"
       x="10.847918"
       y="232.44165" />
  </g>
</svg>
