<?xml version="1.0" encoding="UTF-8" standalone="no"?>
<!-- Created with Inkscape (http://www.inkscape.org/) -->

<svg
   xmlns:dc="http://purl.org/dc/elements/1.1/"
   xmlns:cc="http://creativecommons.org/ns#"
   xmlns:rdf="http://www.w3.org/1999/02/22-rdf-syntax-ns#"
   xmlns:svg="http://www.w3.org/2000/svg"
   xmlns="http://www.w3.org/2000/svg"
   xmlns:sodipodi="http://sodipodi.sourceforge.net/DTD/sodipodi-0.dtd"
   xmlns:inkscape="http://www.inkscape.org/namespaces/inkscape"
   width="297mm"
   height="210mm"
   viewBox="0 0 297 210"
   version="1.1"
   id="svg937"
   inkscape:version="0.92.3 (2405546, 2018-03-11)"
   sodipodi:docname="report.svg">
  <defs
     id="defs931" />
  <sodipodi:namedview
     id="base"
     pagecolor="#ffffff"
     bordercolor="#666666"
     borderopacity="1.0"
     inkscape:pageopacity="0.0"
     inkscape:pageshadow="2"
     inkscape:zoom="0.7"
     inkscape:cx="572.17492"
     inkscape:cy="377.77791"
     inkscape:document-units="mm"
     inkscape:current-layer="layer1"
     showgrid="false"
     inkscape:window-width="1920"
     inkscape:window-height="1015"
     inkscape:window-x="1440"
     inkscape:window-y="32"
     inkscape:window-maximized="1" />
  <metadata
     id="metadata934">
    <rdf:RDF>
      <cc:Work
         rdf:about="">
        <dc:format>image/svg+xml</dc:format>
        <dc:type
           rdf:resource="http://purl.org/dc/dcmitype/StillImage" />
        <dc:title></dc:title>
      </cc:Work>
    </rdf:RDF>
  </metadata>
  <g
     inkscape:label="圖層 1"
     inkscape:groupmode="layer"
     id="layer1"
     transform="translate(0,-87)">
    <rect
       style="opacity:1;vector-effect:none;fill:#fffae3;fill-opacity:1;fill-rule:nonzero;stroke:none;stroke-width:1.75601017;stroke-linecap:butt;stroke-linejoin:round;stroke-miterlimit:4;stroke-dasharray:none;stroke-dashoffset:0;stroke-opacity:0.83225804"
       id="rect834"
       width="297.16983"
       height="273.34912"
       x="0.3377046"
       y="87.186775" />
    <rect
       style="opacity:1;vector-effect:none;fill:none;fill-opacity:1;fill-rule:nonzero;stroke:#474747;stroke-width:1.02294314;stroke-linecap:butt;stroke-linejoin:round;stroke-miterlimit:4;stroke-dasharray:none;stroke-dashoffset:0;stroke-opacity:1"
       id="rect836"
       width="297.16983"
       height="21.075531"
       x="0.33770752"
       y="87.186775" />
    <text
       xml:space="preserve"
       style="font-style:normal;font-weight:normal;font-size:10.58333302px;line-height:1.25;font-family:sans-serif;letter-spacing:0px;word-spacing:0px;fill:#000000;fill-opacity:1;stroke:none;stroke-width:0.26458332"
       x="8.5263824"
       y="101.97923"
       id="text840"><tspan
         sodipodi:role="line"
         id="tspan838"
         x="8.5263824"
         y="101.97923"
         style="stroke-width:0.26458332">Logo</tspan></text>
    <circle
       style="opacity:1;vector-effect:none;fill:none;fill-opacity:1;fill-rule:nonzero;stroke:#474747;stroke-width:1;stroke-linecap:butt;stroke-linejoin:round;stroke-miterlimit:4;stroke-dasharray:none;stroke-dashoffset:0;stroke-opacity:1"
       id="path844"
       cx="272.10043"
       cy="97.953827"
       r="7.6706357" />
    <g
       id="g936"
       transform="translate(-2.3683028,-0.56574781)">
      <path
         inkscape:connector-curvature="0"
         id="path910"
         d="m 285.41927,93.733859 h 8.46666"
         style="fill:none;stroke:#2f2f2f;stroke-width:1.16499996;stroke-linecap:butt;stroke-linejoin:miter;stroke-miterlimit:4;stroke-dasharray:none;stroke-opacity:1" />
      <path
         inkscape:connector-curvature="0"
         id="path910-3"
         d="m 285.28698,98.231771 h 8.46666"
         style="fill:none;stroke:#2f2f2f;stroke-width:1.16499996;stroke-linecap:butt;stroke-linejoin:miter;stroke-miterlimit:4;stroke-dasharray:none;stroke-opacity:1" />
      <path
         inkscape:connector-curvature="0"
         id="path910-6"
         d="m 285.41928,102.66354 h 8.46666"
         style="fill:none;stroke:#2f2f2f;stroke-width:1.16499996;stroke-linecap:butt;stroke-linejoin:miter;stroke-miterlimit:4;stroke-dasharray:none;stroke-opacity:1" />
    </g>
    <g
       id="g944"
       transform="translate(-26.356393,33.765083)">
      <circle
         r="3.4186046"
         cy="62.581402"
         cx="196.32558"
         id="path938"
         style="opacity:1;vector-effect:none;fill:none;fill-opacity:1;fill-rule:nonzero;stroke:#2f2f2f;stroke-width:1.16499996;stroke-linecap:butt;stroke-linejoin:round;stroke-miterlimit:4;stroke-dasharray:none;stroke-dashoffset:0;stroke-opacity:1" />
      <path
         inkscape:connector-curvature="0"
         id="path940"
         d="m 198.52228,65.282757 4.18714,4.187141"
         style="fill:none;stroke:#353535;stroke-width:1.36500001;stroke-linecap:butt;stroke-linejoin:miter;stroke-miterlimit:4;stroke-dasharray:none;stroke-opacity:1" />
    </g>
    <rect
       style="opacity:1;vector-effect:none;fill:#ffffff;fill-opacity:1;fill-rule:nonzero;stroke:#353535;stroke-width:0.66500002;stroke-linecap:butt;stroke-linejoin:round;stroke-miterlimit:4;stroke-dasharray:none;stroke-dashoffset:0;stroke-opacity:1"
       id="rect946"
       width="56.461655"
       height="11.568596"
       x="179.52821"
       y="92.195549" />
    <path
       style="fill:none;stroke:#000000;stroke-width:0.26458332px;stroke-linecap:butt;stroke-linejoin:miter;stroke-opacity:1"
       d="m 250.10481,93.325753 c 0.10695,-0.427806 -0.10696,-0.895111 0,-1.322917 0.0386,-0.154248 0.20553,-0.249252 0.26458,-0.396875 0.034,-0.08488 -0.0246,-0.380462 0,-0.396875 0.11603,-0.07735 0.26159,-0.09847 0.39688,-0.132292 0.0428,-0.01069 0.10111,0.03118 0.13229,0 0.11242,-0.112426 0.12824,-0.315072 0.26458,-0.396875 0.11344,-0.06806 0.26458,0 0.39688,0 0.22048,0 0.44097,0 0.66145,0 0.0441,0 0.10111,-0.03118 0.1323,0 0.0697,0.06972 0.0502,0.209888 0.13229,0.264584 0.0734,0.04892 0.1857,-0.03944 0.26458,0 0.0394,0.01972 -0.0312,0.10111 0,0.132291 0.0312,0.03118 0.0882,0 0.13229,0 0.0441,0.0441 0.0977,0.0804 0.13229,0.132292 0.20279,0.304178 0.0618,0.35728 0.26459,0.661458 0.24973,0.374596 0.0849,-0.250722 0.39687,0.529167 0.037,0.09237 -0.0455,0.483647 0,0.529167 0.0312,0.03118 0.10111,-0.03118 0.13229,0 0.0312,0.03118 -0.0139,0.09046 0,0.132291 0.0801,0.240272 0.11322,0.245513 0.26459,0.396875"
       id="path988"
       inkscape:connector-curvature="0" />
    <path
       style="fill:none;stroke:#000000;stroke-width:0.26458332px;stroke-linecap:butt;stroke-linejoin:miter;stroke-opacity:1"
       d="m 254.07356,93.458044 c -0.48507,0 -0.97014,0 -1.45521,0 -0.22049,10e-7 0.44097,10e-7 0.66146,0 1.40837,0 0.20071,0 1.45521,0 0.0882,0 0.17638,0 0.26458,0 0.0441,0 0.10111,-0.03118 0.13229,0 0.0312,0.03118 0,0.08819 0,0.132292 0.13229,0.0441 0.28085,0.05494 0.39688,0.132292 0.0734,0.04892 -0.0394,0.185699 0,0.264583 0.0279,0.05578 0.0882,0.08819 0.13229,0.132292 0,0.132291 -0.026,0.267152 0,0.396875 0.0468,0.234041 0.33008,0.461092 0.39687,0.661458 0.10459,0.203514 -0.0697,0.452287 0,0.661458 0.0197,0.05916 0.1044,0.07651 0.13229,0.132292 0.0197,0.03944 -0.0107,0.08951 0,0.132292 0.0338,0.135284 0.0985,0.26159 0.1323,0.396875 0.0173,0.06939 -0.0226,0.506523 0,0.529166 0.0697,0.06972 0.19486,0.06257 0.26458,0.132292 0.0312,0.03118 0,0.08819 0,0.132292 0,0.17639 0,0.35278 0,0.52917 0,0.13229 0,0.26458 0,0.39687 0,0.0441 -0.0107,0.0895 0,0.13229 0.0338,0.13529 0.0985,0.26159 0.13229,0.39688 0.0288,0.11499 0,0.39836 0,0.52916 0,0.0441 0.0312,0.10111 0,0.1323 -0.0312,0.0312 -0.1216,-0.0428 -0.13229,0 -0.0862,0.3449 -0.093,0.704977 -0.13229,1.058327 -0.005,0.0438 0.0312,0.10111 0,0.13229 -0.0312,0.0312 -0.0882,0 -0.13229,0 -0.0441,0 -0.0882,0 -0.1323,0 -0.35277,0 -0.70555,0 -1.05833,0 -0.13229,0 -0.26458,0 -0.39687,0 -0.1323,0 -0.26639,-0.0217 -0.39688,0 -0.13755,0.0229 -0.26159,0.0985 -0.39687,0.13229 -0.0428,0.0107 -0.0882,0 -0.1323,0 -0.13229,0 -0.26715,-0.0259 -0.39687,0 -0.0967,0.0193 -0.16892,0.10838 -0.26458,0.13229 -0.0856,0.0214 -0.17639,0 -0.26459,0 -0.22048,0 -0.44097,0 -0.66146,0 -0.52916,0 -1.05833,0 -1.5875,0 -0.35277,0 -0.70555,0 -1.05833,0 -0.17639,0 -0.35804,0.0428 -0.52917,0 -0.0605,-0.0151 -0.0765,-0.1044 -0.13229,-0.13229 -0.0394,-0.0197 -0.0882,0 -0.13229,0 -0.0441,0 -0.0882,0 -0.13229,0 -0.26458,0 -0.52917,0 -0.79375,0 -0.0441,0 -0.10111,0.0312 -0.13229,0 -0.0312,-0.0312 0,-0.0882 0,-0.13229 0,-0.17639 0.029,-0.35518 0,-0.52917 -0.0229,-0.137547 -0.11257,-0.258817 -0.13229,-0.396867 -0.0249,-0.17462 0,-0.35278 0,-0.52917 0,-0.30868 0,-0.61736 0,-0.92604 0,-0.0805 -0.0218,-0.971212 0,-1.058332 0.0239,-0.09566 0.10111,-0.171039 0.13229,-0.264583 0.0396,-0.118858 -0.0305,-0.275023 0,-0.396875 0.0338,-0.135285 0.0985,-0.261591 0.13229,-0.396875 0.0107,-0.04278 -0.0139,-0.09046 0,-0.132292 0.0312,-0.09354 0.10837,-0.168923 0.13229,-0.264583 0.001,-0.0044 -7.9e-4,-0.396173 0,-0.396875 0.0697,-0.06972 0.19486,-0.06257 0.26458,-0.132292 0.0624,-0.06236 -0.0394,-0.1857 0,-0.264583 0.0279,-0.05578 0.10441,-0.07651 0.1323,-0.132292 0.0394,-0.07888 -0.0624,-0.20222 0,-0.264583 0.0312,-0.03118 0.10783,0.03669 0.13229,0 0.0773,-0.116028 0.0985,-0.261591 0.13229,-0.396875 0.0107,-0.04278 -0.0312,-0.101111 0,-0.132292 0.0312,-0.03118 0.10111,0.03118 0.13229,0 0.0662,-0.06615 -0.0661,-0.330729 0,-0.396875 0.0624,-0.06236 0.20222,0.06236 0.26458,0 0.0312,-0.03118 -0.0312,-0.10111 0,-0.132292 0.0312,-0.03118 0.0882,0 0.1323,0 0.0882,0 0.17638,0 0.26458,0 0.35278,0 0.70555,0 1.05833,0 0.0869,0 0.32224,0.02488 0.39688,0 0.0935,-0.03118 0.17104,-0.10111 0.26458,-0.132291 0.0665,-0.02217 0.7592,0 0.79375,0 0.35278,0 0.70556,0 1.05833,0 0.1323,0 0.26561,-0.01641 0.39688,0 0.22311,0.02789 0.44097,0.08819 0.66146,0.132291 z"
       id="path994"
       inkscape:connector-curvature="0" />
    <path
       style="fill:none;stroke:#000000;stroke-width:0.26458332px;stroke-linecap:butt;stroke-linejoin:miter;stroke-opacity:1"
       d="m 248.78189,100.60179 c 0.0242,0.56728 -0.0852,1.1761 0.13229,1.71979 -0.0345,0.2795 0.20989,0.0502 0.26459,0.13229 0.0773,0.11603 0.0549,0.28085 0.13229,0.39688 0.0244,0.0367 0.13229,-0.0441 0.13229,0 0,0.0441 -0.16347,-0.0312 -0.13229,0 0.15201,0.15201 0.23396,0.13229 0.39687,0.13229 0.0882,0 0.17639,0 0.26459,0 0.0441,0 0.0956,-0.0245 0.13229,0 0.10377,0.0692 0.15302,0.20881 0.26458,0.26458 0.11832,0.0592 0.26458,0 0.39688,0 0.35277,0 0.70555,0 1.05833,0 0.49221,0 0.76451,0 0.92604,0 0.0596,0 0.35661,0.0201 0.39688,0 0.0558,-0.0279 0.0765,-0.1044 0.13229,-0.13229 0.11832,-0.0592 0.27855,0.0592 0.39687,0 0.0394,-0.0197 -0.0312,-0.10111 0,-0.13229 0.0662,-0.0661 0.33073,0.0662 0.39688,0 0.0312,-0.0312 -0.0312,-0.10111 0,-0.13229 0.11242,-0.11243 0.26968,-0.16919 0.39687,-0.26458 0.0499,-0.0374 0.0804,-0.0977 0.13229,-0.1323 0.0821,-0.0547 0.19486,-0.0626 0.26459,-0.13229 0.0312,-0.0312 -0.0139,-0.0905 0,-0.13229 0.0751,-0.22528 0.14676,-0.45527 0.26458,-0.66146 0.0619,-0.10829 0.1954,-0.1608 0.26458,-0.26458 0.0218,-0.0327 0,-0.46125 0,-0.52917"
       id="path1002"
       inkscape:connector-curvature="0" />
    <text
       xml:space="preserve"
       style="font-style:normal;font-weight:normal;font-size:10.58333302px;line-height:1.25;font-family:sans-serif;letter-spacing:0px;word-spacing:0px;fill:#000000;fill-opacity:1;stroke:none;stroke-width:0.26458332"
       x="122.42481"
       y="101.00108"
       id="text1628"><tspan
         sodipodi:role="line"
         id="tspan1626"
         x="122.42481"
         y="101.00108"
         style="stroke-width:0.26458332">Report</tspan></text>
    <rect
       style="opacity:1;vector-effect:none;fill:#fffffd;fill-opacity:1;fill-rule:nonzero;stroke:#252525;stroke-width:1;stroke-linecap:butt;stroke-linejoin:round;stroke-miterlimit:4;stroke-dasharray:none;stroke-dashoffset:0;stroke-opacity:1"
       id="rect1619"
       width="267.60715"
       height="73.179245"
       x="14.741071"
       y="140.13988" />
    <rect
       style="opacity:1;vector-effect:none;fill:none;fill-opacity:1;fill-rule:nonzero;stroke:#252525;stroke-width:1;stroke-linecap:butt;stroke-linejoin:round;stroke-miterlimit:4;stroke-dasharray:none;stroke-dashoffset:0;stroke-opacity:1"
       id="rect2219"
       width="40.85099"
       height="16.063257"
       x="14.741071"
       y="124.07662" />
    <rect
       style="opacity:1;vector-effect:none;fill:#ffffff;fill-opacity:1;fill-rule:nonzero;stroke:#252525;stroke-width:1;stroke-linecap:butt;stroke-linejoin:round;stroke-miterlimit:4;stroke-dasharray:none;stroke-dashoffset:0;stroke-opacity:1"
       id="rect2221"
       width="40.892239"
       height="16.063257"
       x="55.59206"
       y="124.07662" />
    <rect
       style="opacity:1;vector-effect:none;fill:none;fill-opacity:1;fill-rule:nonzero;stroke:#252525;stroke-width:1;stroke-linecap:butt;stroke-linejoin:round;stroke-miterlimit:4;stroke-dasharray:none;stroke-dashoffset:0;stroke-opacity:1"
       id="rect2223"
       width="35.546848"
       height="16.063257"
       x="96.484299"
       y="124.07662" />
    <rect
       style="opacity:1;vector-effect:none;fill:none;fill-opacity:1;fill-rule:nonzero;stroke:#252525;stroke-width:1;stroke-linecap:butt;stroke-linejoin:round;stroke-miterlimit:4;stroke-dasharray:none;stroke-dashoffset:0;stroke-opacity:1"
       id="rect2225"
       width="36.348656"
       height="16.063255"
       x="132.03114"
       y="124.07662"
       ry="0" />
    <text
       xml:space="preserve"
       style="font-style:normal;font-weight:normal;font-size:8.46666622px;line-height:1.25;font-family:sans-serif;letter-spacing:0px;word-spacing:0px;fill:#000000;fill-opacity:1;stroke:none;stroke-width:0.26458332"
       x="19.749256"
       y="135.88765"
       id="text2229"><tspan
         sodipodi:role="line"
         id="tspan2227"
         x="19.749256"
         y="135.88765"
         style="stroke-width:0.26458332">題目</tspan></text>
    <text
       xml:space="preserve"
       style="font-style:normal;font-weight:normal;font-size:8.46666622px;line-height:1.25;font-family:sans-serif;letter-spacing:0px;word-spacing:0px;fill:#000000;fill-opacity:1;stroke:none;stroke-width:0.26458332"
       x="59.153271"
       y="135.41519"
       id="text2233"><tspan
         sodipodi:role="line"
         id="tspan2231"
         x="59.153271"
         y="135.41519"
         style="stroke-width:0.26458332">回報問題</tspan></text>
    <text
       xml:space="preserve"
       style="font-style:normal;font-weight:normal;font-size:8.46666622px;line-height:1.25;font-family:sans-serif;letter-spacing:0px;word-spacing:0px;fill:#000000;fill-opacity:1;stroke:none;stroke-width:0.26458332"
       x="97.419739"
       y="135.97012"
       id="text2237"><tspan
         sodipodi:role="line"
         id="tspan2235"
         x="97.419739"
         y="135.97012"
         style="stroke-width:0.26458332">參考資料</tspan></text>
    <text
       xml:space="preserve"
       style="font-style:normal;font-weight:normal;font-size:8.46666622px;line-height:1.25;font-family:sans-serif;letter-spacing:0px;word-spacing:0px;fill:#000000;fill-opacity:1;stroke:none;stroke-width:0.26458332"
       x="136.04019"
       y="135.1683"
       id="text2241"><tspan
         sodipodi:role="line"
         id="tspan2239"
         x="136.04019"
         y="135.1683"
         style="stroke-width:0.26458332">知識庫</tspan></text>
    <rect
       style="opacity:1;vector-effect:none;fill:none;fill-opacity:1;fill-rule:nonzero;stroke:#252525;stroke-width:1;stroke-linecap:butt;stroke-linejoin:round;stroke-miterlimit:4;stroke-dasharray:none;stroke-dashoffset:0;stroke-opacity:1"
       id="rect2243"
       width="36.348663"
       height="16.036169"
       x="168.37979"
       y="124.07662"
       ry="0" />
    <text
       xml:space="preserve"
       style="font-style:normal;font-weight:normal;font-size:8.46666622px;line-height:1.25;font-family:sans-serif;letter-spacing:0px;word-spacing:0px;fill:#000000;fill-opacity:1;stroke:none;stroke-width:0.26458332"
       x="173.59157"
       y="135.43558"
       id="text2247"><tspan
         sodipodi:role="line"
         id="tspan2245"
         x="173.59157"
         y="135.43558"
         style="stroke-width:0.26458332">論壇</tspan></text>
    <text
       xml:space="preserve"
       style="font-style:normal;font-weight:normal;font-size:8.46666622px;line-height:1.25;font-family:sans-serif;letter-spacing:0px;word-spacing:0px;fill:#000000;fill-opacity:1;stroke:none;stroke-width:0.26458332"
       x="22.229225"
       y="154.25908"
       id="text2251"><tspan
         sodipodi:role="line"
         id="tspan2249"
         x="22.229225"
         y="154.25908"
         style="stroke-width:0.26458332">題目敘述</tspan></text>
    <rect
       style="opacity:1;vector-effect:none;fill:#fffffd;fill-opacity:1;fill-rule:nonzero;stroke:#252525;stroke-width:1;stroke-linecap:butt;stroke-linejoin:round;stroke-miterlimit:4;stroke-dasharray:none;stroke-dashoffset:0;stroke-opacity:1"
       id="rect2253"
       width="266.46771"
       height="48.108517"
       x="14.432554"
       y="232.04816" />
    <text
       xml:space="preserve"
       style="font-style:normal;font-weight:normal;font-size:8.46666622px;line-height:1.25;font-family:sans-serif;letter-spacing:0px;word-spacing:0px;fill:#000000;fill-opacity:1;stroke:none;stroke-width:0.26458332"
       x="21.381561"
       y="230.98442"
       id="text2257"><tspan
         sodipodi:role="line"
         id="tspan2255"
         x="21.381561"
         y="239.49342"
         style="stroke-width:0.26458332" /></text>
    <text
       xml:space="preserve"
       style="font-style:normal;font-weight:normal;font-size:8.46666622px;line-height:1.25;font-family:sans-serif;letter-spacing:0px;word-spacing:0px;fill:#000000;fill-opacity:1;stroke:none;stroke-width:0.26458332"
       x="15.234364"
       y="226.43549"
       id="text2261"><tspan
         sodipodi:role="line"
         id="tspan2259"
         x="15.234364"
         y="226.43549"
         style="stroke-width:0.26458332">作答：</tspan></text>
    <rect
       style="opacity:1;vector-effect:none;fill:#ff6950;fill-opacity:1;fill-rule:nonzero;stroke:#3b3b3b;stroke-width:0.69999999;stroke-linecap:butt;stroke-linejoin:round;stroke-miterlimit:4;stroke-dasharray:none;stroke-dashoffset:0;stroke-opacity:1"
       id="rect1617"
       width="24.054256"
       height="8.4189901"
       x="252.67027"
       y="282.86313"
       ry="2.3150961" />
    <rect
       y="282.92926"
       x="197.94617"
       height="8.4189901"
       width="24.054256"
       id="rect1619-9"
       style="opacity:1;vector-effect:none;fill:#9be5ff;fill-opacity:1;fill-rule:nonzero;stroke:#000000;stroke-width:0.69999999;stroke-linecap:butt;stroke-linejoin:round;stroke-miterlimit:4;stroke-dasharray:none;stroke-dashoffset:0;stroke-opacity:1" />
    <rect
       style="opacity:1;vector-effect:none;fill:#91ff97;fill-opacity:1;fill-rule:nonzero;stroke:#000000;stroke-width:0.69999999;stroke-linecap:butt;stroke-linejoin:round;stroke-miterlimit:4;stroke-dasharray:none;stroke-dashoffset:0;stroke-opacity:1"
       id="rect1621"
       width="24.054256"
       height="8.4189901"
       x="225.54242"
       y="282.86313" />
    <text
       xml:space="preserve"
       style="font-style:normal;font-weight:normal;font-size:3.52777767px;line-height:1.25;font-family:sans-serif;letter-spacing:0px;word-spacing:0px;fill:#424242;fill-opacity:1;stroke:none;stroke-width:0.26458332"
       x="255.65854"
       y="288.36227"
       id="text1625"><tspan
         sodipodi:role="line"
         id="tspan1623"
         x="255.65854"
         y="288.36227"
         style="font-size:3.52777767px;fill:#424242;fill-opacity:1;stroke-width:0.26458332">delete draft</tspan></text>
    <text
       xml:space="preserve"
       style="font-style:normal;font-weight:normal;font-size:4.23333311px;line-height:1.25;font-family:sans-serif;letter-spacing:0px;word-spacing:0px;fill:#000000;fill-opacity:1;stroke:none;stroke-width:0.26458332"
       x="233.33289"
       y="288.26773"
       id="text1629"><tspan
         sodipodi:role="line"
         id="tspan1627"
         x="233.33289"
         y="288.26773"
         style="stroke-width:0.26458332">save</tspan></text>
    <text
       xml:space="preserve"
       style="font-style:normal;font-weight:normal;font-size:4.23333311px;line-height:1.25;font-family:sans-serif;letter-spacing:0px;word-spacing:0px;fill:#000000;fill-opacity:1;stroke:none;stroke-width:0.26458332"
       x="203.23654"
       y="288.46619"
       id="text1633"><tspan
         sodipodi:role="line"
         id="tspan1631"
         x="203.23654"
         y="288.46619"
         style="stroke-width:0.26458332">submit</tspan></text>
    <text
       xml:space="preserve"
       style="font-style:normal;font-weight:normal;font-size:8.46666622px;line-height:1.25;font-family:sans-serif;letter-spacing:0px;word-spacing:0px;fill:#000000;fill-opacity:1;stroke:none;stroke-width:0.26458332"
       x="16.819941"
       y="120.48512"
       id="text2323"><tspan
         sodipodi:role="line"
         id="tspan2321"
         x="16.819941"
         y="120.48512"
         style="stroke-width:0.26458332">$ Question Title</tspan></text>
    <text
       xml:space="preserve"
       style="font-style:normal;font-weight:normal;font-size:8.46666622px;line-height:1.25;font-family:sans-serif;letter-spacing:0px;word-spacing:0px;fill:#000000;fill-opacity:1;stroke:none;stroke-width:0.26458332"
       x="15.497025"
       y="307.58334"
       id="text2327"><tspan
         sodipodi:role="line"
         id="tspan2325"
         x="15.497025"
         y="307.58334"
         style="stroke-width:0.26458332">已回報問題：</tspan></text>
    <rect
       style="opacity:1;vector-effect:none;fill:#fffffd;fill-opacity:1;fill-rule:nonzero;stroke:#252525;stroke-width:1;stroke-linecap:butt;stroke-linejoin:round;stroke-miterlimit:4;stroke-dasharray:none;stroke-dashoffset:0;stroke-opacity:1"
       id="rect2329"
       width="265.71725"
       height="25.324394"
       x="14.363094"
       y="313.25299"
       ry="0" />
    <text
       xml:space="preserve"
       style="font-style:normal;font-weight:normal;font-size:8.46666622px;line-height:1.25;font-family:sans-serif;letter-spacing:0px;word-spacing:0px;fill:#000000;fill-opacity:1;stroke:none;stroke-width:0.26458332"
       x="20.788691"
       y="325.34824"
       id="text2333"><tspan
         sodipodi:role="line"
         id="tspan2331"
         x="20.788691"
         y="325.34824"
         style="stroke-width:0.26458332">$ issue title</tspan></text>
    <text
       xml:space="preserve"
       style="font-style:normal;font-weight:normal;font-size:8.46666622px;line-height:1.25;font-family:sans-serif;letter-spacing:0px;word-spacing:0px;fill:#000000;fill-opacity:1;stroke:none;stroke-width:0.26458332"
       x="249.46428"
       y="329.88394"
       id="text2337"><tspan
         sodipodi:role="line"
         id="tspan2335"
         x="249.46428"
         y="329.88394"
         style="stroke-width:0.26458332">回覆數</tspan></text>
    <text
       xml:space="preserve"
       style="font-style:normal;font-weight:normal;font-size:5.64444447px;line-height:1.25;font-family:sans-serif;letter-spacing:0px;word-spacing:0px;fill:#585858;fill-opacity:1;stroke:none;stroke-width:0.26458332"
       x="21.381563"
       y="334.9523"
       id="text2341"><tspan
         sodipodi:role="line"
         id="tspan2339"
         x="21.381563"
         y="334.9523"
         style="font-size:5.64444447px;fill:#585858;fill-opacity:1;stroke-width:0.26458332"># $date</tspan></text>
    <text
       xml:space="preserve"
       style="font-style:normal;font-weight:normal;font-size:8.46666622px;line-height:1.25;font-family:sans-serif;letter-spacing:0px;word-spacing:0px;fill:#000000;fill-opacity:1;stroke:none;stroke-width:0.26458332"
       x="124.81487"
       y="352.3248"
       id="text2345"><tspan
         sodipodi:role="line"
         id="tspan2343"
         x="124.81487"
         y="352.3248"
         style="stroke-width:0.26458332">。 。 。</tspan></text>
  </g>
</svg>
