<?xml version="1.0" encoding="UTF-8" standalone="no"?>
<!-- Created with Inkscape (http://www.inkscape.org/) -->

<svg
   xmlns:dc="http://purl.org/dc/elements/1.1/"
   xmlns:cc="http://creativecommons.org/ns#"
   xmlns:rdf="http://www.w3.org/1999/02/22-rdf-syntax-ns#"
   xmlns:svg="http://www.w3.org/2000/svg"
   xmlns="http://www.w3.org/2000/svg"
   xmlns:sodipodi="http://sodipodi.sourceforge.net/DTD/sodipodi-0.dtd"
   xmlns:inkscape="http://www.inkscape.org/namespaces/inkscape"
   width="297mm"
   height="210mm"
   viewBox="0 0 297 210"
   version="1.1"
   id="svg1003"
   inkscape:version="0.92.3 (2405546, 2018-03-11)"
   sodipodi:docname="edit.svg">
  <defs
     id="defs997" />
  <sodipodi:namedview
     id="base"
     pagecolor="#ffffff"
     bordercolor="#666666"
     borderopacity="1.0"
     inkscape:pageopacity="0.0"
     inkscape:pageshadow="2"
     inkscape:zoom="1"
     inkscape:cx="536.42276"
     inkscape:cy="293.74544"
     inkscape:document-units="mm"
     inkscape:current-layer="layer1"
     showgrid="false"
     inkscape:window-width="1920"
     inkscape:window-height="1015"
     inkscape:window-x="1440"
     inkscape:window-y="32"
     inkscape:window-maximized="1" />
  <metadata
     id="metadata1000">
    <rdf:RDF>
      <cc:Work
         rdf:about="">
        <dc:format>image/svg+xml</dc:format>
        <dc:type
           rdf:resource="http://purl.org/dc/dcmitype/StillImage" />
        <dc:title></dc:title>
      </cc:Work>
    </rdf:RDF>
  </metadata>
  <g
     inkscape:label="圖層 1"
     inkscape:groupmode="layer"
     id="layer1"
     transform="translate(0,-87)">
    <rect
       style="opacity:1;vector-effect:none;fill:#fffae2;fill-opacity:1;fill-rule:nonzero;stroke:#000000;stroke-width:1.37744224;stroke-linecap:butt;stroke-linejoin:round;stroke-miterlimit:4;stroke-dasharray:none;stroke-dashoffset:0;stroke-opacity:1"
       id="rect834"
       width="297.16983"
       height="209.47169"
       x="0.016936388"
       y="87.494499" />
    <rect
       style="opacity:1;vector-effect:none;fill:none;fill-opacity:1;fill-rule:nonzero;stroke:#474747;stroke-width:1.02294314;stroke-linecap:butt;stroke-linejoin:round;stroke-miterlimit:4;stroke-dasharray:none;stroke-dashoffset:0;stroke-opacity:1"
       id="rect836"
       width="297.16983"
       height="21.075531"
       x="0.016937256"
       y="87.494499" />
    <text
       xml:space="preserve"
       style="font-style:normal;font-weight:normal;font-size:10.58333302px;line-height:1.25;font-family:sans-serif;letter-spacing:0px;word-spacing:0px;fill:#000000;fill-opacity:1;stroke:none;stroke-width:0.26458332"
       x="8.2056122"
       y="102.28696"
       id="text840"><tspan
         sodipodi:role="line"
         id="tspan838"
         x="8.2056122"
         y="102.28696"
         style="stroke-width:0.26458332">Logo</tspan></text>
    <circle
       style="opacity:1;vector-effect:none;fill:none;fill-opacity:1;fill-rule:nonzero;stroke:#474747;stroke-width:1;stroke-linecap:butt;stroke-linejoin:round;stroke-miterlimit:4;stroke-dasharray:none;stroke-dashoffset:0;stroke-opacity:1"
       id="path844"
       cx="271.77966"
       cy="98.261543"
       r="7.6706357" />
    <g
       id="g936"
       transform="translate(-2.689073,-0.25802702)">
      <path
         inkscape:connector-curvature="0"
         id="path910"
         d="m 285.41927,93.733859 h 8.46666"
         style="fill:none;stroke:#2f2f2f;stroke-width:1.16499996;stroke-linecap:butt;stroke-linejoin:miter;stroke-miterlimit:4;stroke-dasharray:none;stroke-opacity:1" />
      <path
         inkscape:connector-curvature="0"
         id="path910-3"
         d="m 285.28698,98.231771 h 8.46666"
         style="fill:none;stroke:#2f2f2f;stroke-width:1.16499996;stroke-linecap:butt;stroke-linejoin:miter;stroke-miterlimit:4;stroke-dasharray:none;stroke-opacity:1" />
      <path
         inkscape:connector-curvature="0"
         id="path910-6"
         d="m 285.41928,102.66354 h 8.46666"
         style="fill:none;stroke:#2f2f2f;stroke-width:1.16499996;stroke-linecap:butt;stroke-linejoin:miter;stroke-miterlimit:4;stroke-dasharray:none;stroke-opacity:1" />
    </g>
    <g
       id="g944"
       transform="translate(-26.677163,34.072804)">
      <circle
         r="3.4186046"
         cy="62.581402"
         cx="196.32558"
         id="path938"
         style="opacity:1;vector-effect:none;fill:none;fill-opacity:1;fill-rule:nonzero;stroke:#2f2f2f;stroke-width:1.16499996;stroke-linecap:butt;stroke-linejoin:round;stroke-miterlimit:4;stroke-dasharray:none;stroke-dashoffset:0;stroke-opacity:1" />
      <path
         inkscape:connector-curvature="0"
         id="path940"
         d="m 198.52228,65.282757 4.18714,4.187141"
         style="fill:none;stroke:#353535;stroke-width:1.36500001;stroke-linecap:butt;stroke-linejoin:miter;stroke-miterlimit:4;stroke-dasharray:none;stroke-opacity:1" />
    </g>
    <rect
       style="opacity:1;vector-effect:none;fill:#ffffff;fill-opacity:1;fill-rule:nonzero;stroke:#353535;stroke-width:0.66500002;stroke-linecap:butt;stroke-linejoin:round;stroke-miterlimit:4;stroke-dasharray:none;stroke-dashoffset:0;stroke-opacity:1"
       id="rect946"
       width="56.461655"
       height="11.568596"
       x="179.20744"
       y="92.503273" />
    <path
       style="fill:none;stroke:#000000;stroke-width:0.26458332px;stroke-linecap:butt;stroke-linejoin:miter;stroke-opacity:1"
       d="m 249.78404,93.633474 c 0.10695,-0.427806 -0.10696,-0.895111 0,-1.322917 0.0386,-0.154248 0.20553,-0.249252 0.26458,-0.396875 0.034,-0.08488 -0.0246,-0.380462 0,-0.396875 0.11603,-0.07735 0.26159,-0.09847 0.39688,-0.132292 0.0428,-0.01069 0.10111,0.03118 0.13229,0 0.11242,-0.112426 0.12824,-0.315072 0.26458,-0.396875 0.11344,-0.06806 0.26458,0 0.39688,0 0.22048,0 0.44097,0 0.66145,0 0.0441,0 0.10111,-0.03118 0.1323,0 0.0697,0.06972 0.0502,0.209888 0.13229,0.264584 0.0734,0.04892 0.1857,-0.03944 0.26458,0 0.0394,0.01972 -0.0312,0.10111 0,0.132291 0.0312,0.03118 0.0882,0 0.13229,0 0.0441,0.0441 0.0977,0.0804 0.13229,0.132292 0.20279,0.304178 0.0618,0.35728 0.26459,0.661458 0.24973,0.374596 0.0849,-0.250722 0.39687,0.529167 0.037,0.09237 -0.0455,0.483647 0,0.529167 0.0312,0.03118 0.10111,-0.03118 0.13229,0 0.0312,0.03118 -0.0139,0.09046 0,0.132291 0.0801,0.240272 0.11322,0.245513 0.26459,0.396875"
       id="path988"
       inkscape:connector-curvature="0" />
    <path
       style="fill:none;stroke:#000000;stroke-width:0.26458332px;stroke-linecap:butt;stroke-linejoin:miter;stroke-opacity:1"
       d="m 253.75279,93.765765 c -0.48507,0 -0.97014,0 -1.45521,0 -0.22049,10e-7 0.44097,10e-7 0.66146,0 1.40837,0 0.20071,0 1.45521,0 0.0882,0 0.17638,0 0.26458,0 0.0441,0 0.10111,-0.03118 0.13229,0 0.0312,0.03118 0,0.08819 0,0.132292 0.13229,0.0441 0.28085,0.05494 0.39688,0.132292 0.0734,0.04892 -0.0394,0.185699 0,0.264583 0.0279,0.05578 0.0882,0.08819 0.13229,0.132292 0,0.132291 -0.026,0.267152 0,0.396875 0.0468,0.234041 0.33008,0.461092 0.39687,0.661458 0.10459,0.20351 -0.0697,0.45229 0,0.66146 0.0197,0.0592 0.1044,0.0765 0.13229,0.13229 0.0197,0.0394 -0.0107,0.0895 0,0.13229 0.0338,0.13529 0.0985,0.26159 0.1323,0.39688 0.0173,0.0694 -0.0226,0.50652 0,0.52916 0.0697,0.0697 0.19486,0.0626 0.26458,0.13229 0.0312,0.0312 0,0.0882 0,0.1323 0,0.17639 0,0.35277 0,0.52916 0,0.13229 0,0.26459 0,0.39688 0,0.0441 -0.0107,0.0895 0,0.13229 0.0338,0.13528 0.0985,0.26159 0.13229,0.39687 0.0288,0.115 0,0.39836 0,0.52917 0,0.0441 0.0312,0.10111 0,0.13229 -0.0312,0.0312 -0.1216,-0.0428 -0.13229,0 -0.0862,0.344913 -0.093,0.704993 -0.13229,1.058343 -0.005,0.0438 0.0312,0.10111 0,0.13229 -0.0312,0.0312 -0.0882,0 -0.13229,0 -0.0441,0 -0.0882,0 -0.1323,0 -0.35277,0 -0.70555,0 -1.05833,0 -0.13229,0 -0.26458,0 -0.39687,0 -0.1323,0 -0.26639,-0.0217 -0.39688,0 -0.13755,0.0229 -0.26159,0.0985 -0.39687,0.13229 -0.0428,0.0107 -0.0882,0 -0.1323,0 -0.13229,0 -0.26715,-0.0259 -0.39687,0 -0.0967,0.0193 -0.16892,0.10838 -0.26458,0.13229 -0.0856,0.0214 -0.17639,0 -0.26459,0 -0.22048,0 -0.44097,0 -0.66146,0 -0.52916,0 -1.05833,0 -1.5875,0 -0.35277,0 -0.70555,0 -1.05833,0 -0.17639,0 -0.35804,0.0428 -0.52917,0 -0.0605,-0.0151 -0.0765,-0.1044 -0.13229,-0.13229 -0.0394,-0.0197 -0.0882,0 -0.13229,0 -0.0441,0 -0.0882,0 -0.13229,0 -0.26458,0 -0.52917,0 -0.79375,0 -0.0441,0 -0.10111,0.0312 -0.13229,0 -0.0312,-0.0312 0,-0.0882 0,-0.13229 0,-0.17639 0.029,-0.35518 0,-0.52917 -0.0229,-0.13755 -0.11257,-0.25882 -0.13229,-0.396873 -0.0249,-0.17462 0,-0.35278 0,-0.52917 0,-0.30868 0,-0.61736 0,-0.92604 0,-0.0805 -0.0218,-0.97122 0,-1.05834 0.0239,-0.0957 0.10111,-0.17103 0.13229,-0.26458 0.0396,-0.11886 -0.0305,-0.27502 0,-0.39687 0.0338,-0.13529 0.0985,-0.26159 0.13229,-0.39688 0.0107,-0.0428 -0.0139,-0.0905 0,-0.13229 0.0312,-0.0935 0.10837,-0.16892 0.13229,-0.26458 0.001,-0.004 -7.9e-4,-0.39618 0,-0.39688 0.0697,-0.0697 0.19486,-0.0626 0.26458,-0.13229 0.0624,-0.0624 -0.0394,-0.1857 0,-0.264583 0.0279,-0.05578 0.10441,-0.07651 0.1323,-0.132292 0.0394,-0.07888 -0.0624,-0.20222 0,-0.264583 0.0312,-0.03118 0.10783,0.03669 0.13229,0 0.0773,-0.116028 0.0985,-0.261591 0.13229,-0.396875 0.0107,-0.04278 -0.0312,-0.101111 0,-0.132292 0.0312,-0.03118 0.10111,0.03118 0.13229,0 0.0662,-0.06615 -0.0661,-0.330729 0,-0.396875 0.0624,-0.06236 0.20222,0.06236 0.26458,0 0.0312,-0.03118 -0.0312,-0.10111 0,-0.132292 0.0312,-0.03118 0.0882,0 0.1323,0 0.0882,0 0.17638,0 0.26458,0 0.35278,0 0.70555,0 1.05833,0 0.0869,0 0.32224,0.02488 0.39688,0 0.0935,-0.03118 0.17104,-0.10111 0.26458,-0.132291 0.0665,-0.02217 0.7592,0 0.79375,0 0.35278,0 0.70556,0 1.05833,0 0.1323,0 0.26561,-0.01641 0.39688,0 0.22311,0.02789 0.44097,0.08819 0.66146,0.132291 z"
       id="path994"
       inkscape:connector-curvature="0" />
    <path
       style="fill:none;stroke:#000000;stroke-width:0.26458332px;stroke-linecap:butt;stroke-linejoin:miter;stroke-opacity:1"
       d="m 248.46112,100.90952 c 0.0242,0.56728 -0.0852,1.1761 0.13229,1.71979 -0.0345,0.2795 0.20989,0.0502 0.26459,0.13229 0.0773,0.11603 0.0549,0.28085 0.13229,0.39688 0.0244,0.0367 0.13229,-0.0441 0.13229,0 0,0.0441 -0.16347,-0.0312 -0.13229,0 0.15201,0.15201 0.23396,0.13229 0.39687,0.13229 0.0882,0 0.17639,0 0.26459,0 0.0441,0 0.0956,-0.0245 0.13229,0 0.10377,0.0692 0.15302,0.20881 0.26458,0.26458 0.11832,0.0592 0.26458,0 0.39688,0 0.35277,0 0.70555,0 1.05833,0 0.49221,0 0.76451,0 0.92604,0 0.0596,0 0.35661,0.0201 0.39688,0 0.0558,-0.0279 0.0765,-0.1044 0.13229,-0.13229 0.11832,-0.0592 0.27855,0.0592 0.39687,0 0.0394,-0.0197 -0.0312,-0.10111 0,-0.13229 0.0662,-0.0661 0.33073,0.0662 0.39688,0 0.0312,-0.0312 -0.0312,-0.10111 0,-0.13229 0.11242,-0.11243 0.26968,-0.16919 0.39687,-0.26458 0.0499,-0.0374 0.0804,-0.0977 0.13229,-0.1323 0.0821,-0.0547 0.19486,-0.0626 0.26459,-0.13229 0.0312,-0.0312 -0.0139,-0.0905 0,-0.13229 0.0751,-0.22528 0.14676,-0.45527 0.26458,-0.66146 0.0619,-0.10829 0.1954,-0.1608 0.26458,-0.26458 0.0218,-0.0327 0,-0.46125 0,-0.52917"
       id="path1002"
       inkscape:connector-curvature="0" />
    <text
       xml:space="preserve"
       style="font-style:normal;font-weight:normal;font-size:10.58333302px;line-height:1.25;font-family:sans-serif;letter-spacing:0px;word-spacing:0px;fill:#000000;fill-opacity:1;stroke:none;stroke-width:0.26458332"
       x="137.22308"
       y="101.91356"
       id="text1628"><tspan
         sodipodi:role="line"
         id="tspan1626"
         x="137.22308"
         y="101.91356"
         style="stroke-width:0.26458332">Edit</tspan></text>
    <rect
       style="opacity:1;vector-effect:none;fill:#fdfdfd;fill-opacity:1;fill-rule:nonzero;stroke:#000000;stroke-width:0.62826318;stroke-linecap:butt;stroke-linejoin:round;stroke-miterlimit:4;stroke-dasharray:none;stroke-dashoffset:0;stroke-opacity:1"
       id="rect1611"
       width="252.10925"
       height="113.26508"
       x="22.528233"
       y="153.74696" />
    <rect
       style="opacity:1;vector-effect:none;fill:#fdfdfd;fill-opacity:1;fill-rule:nonzero;stroke:#000000;stroke-width:0.69986248;stroke-linecap:butt;stroke-linejoin:round;stroke-miterlimit:4;stroke-dasharray:none;stroke-dashoffset:0;stroke-opacity:1"
       id="rect1613"
       width="252.10925"
       height="12.978975"
       x="22.528233"
       y="267.01218" />
    <rect
       style="opacity:1;vector-effect:none;fill:#fdfdfd;fill-opacity:1;fill-rule:nonzero;stroke:#000000;stroke-width:0.69999999;stroke-linecap:butt;stroke-linejoin:round;stroke-miterlimit:4;stroke-dasharray:none;stroke-dashoffset:0;stroke-opacity:1"
       id="rect1615"
       width="252.11011"
       height="14.363091"
       x="22.527384"
       y="139.38387" />
    <rect
       style="opacity:1;vector-effect:none;fill:#ff6950;fill-opacity:1;fill-rule:nonzero;stroke:#3b3b3b;stroke-width:0.69999999;stroke-linecap:butt;stroke-linejoin:round;stroke-miterlimit:4;stroke-dasharray:none;stroke-dashoffset:0;stroke-opacity:1"
       id="rect1617"
       width="24.054256"
       height="8.4189901"
       x="247.27589"
       y="269.30432"
       ry="2.3150961" />
    <rect
       y="269.37045"
       x="192.55179"
       height="8.4189901"
       width="24.054256"
       id="rect1619"
       style="opacity:1;vector-effect:none;fill:#9be5ff;fill-opacity:1;fill-rule:nonzero;stroke:#000000;stroke-width:0.69999999;stroke-linecap:butt;stroke-linejoin:round;stroke-miterlimit:4;stroke-dasharray:none;stroke-dashoffset:0;stroke-opacity:1" />
    <rect
       style="opacity:1;vector-effect:none;fill:#91ff97;fill-opacity:1;fill-rule:nonzero;stroke:#000000;stroke-width:0.69999999;stroke-linecap:butt;stroke-linejoin:round;stroke-miterlimit:4;stroke-dasharray:none;stroke-dashoffset:0;stroke-opacity:1"
       id="rect1621"
       width="24.054256"
       height="8.4189901"
       x="220.14804"
       y="269.30432" />
    <text
       xml:space="preserve"
       style="font-style:normal;font-weight:normal;font-size:4.23333311px;line-height:1.25;font-family:sans-serif;letter-spacing:0px;word-spacing:0px;fill:#424242;fill-opacity:1;stroke:none;stroke-width:0.26458332"
       x="253.19351"
       y="274.89795"
       id="text1625"><tspan
         sodipodi:role="line"
         id="tspan1623"
         x="253.19351"
         y="274.89795"
         style="fill:#424242;fill-opacity:1;stroke-width:0.26458332">cancel</tspan></text>
    <text
       xml:space="preserve"
       style="font-style:normal;font-weight:normal;font-size:4.23333311px;line-height:1.25;font-family:sans-serif;letter-spacing:0px;word-spacing:0px;fill:#000000;fill-opacity:1;stroke:none;stroke-width:0.26458332"
       x="227.93851"
       y="274.70892"
       id="text1629"><tspan
         sodipodi:role="line"
         id="tspan1627"
         x="227.93851"
         y="274.70892"
         style="stroke-width:0.26458332">save</tspan></text>
    <text
       xml:space="preserve"
       style="font-style:normal;font-weight:normal;font-size:4.23333311px;line-height:1.25;font-family:sans-serif;letter-spacing:0px;word-spacing:0px;fill:#000000;fill-opacity:1;stroke:none;stroke-width:0.26458332"
       x="197.84216"
       y="274.90738"
       id="text1633"><tspan
         sodipodi:role="line"
         id="tspan1631"
         x="197.84216"
         y="274.90738"
         style="stroke-width:0.26458332">submit</tspan></text>
    <rect
       style="opacity:1;vector-effect:none;fill:#ffffff;fill-opacity:1;fill-rule:nonzero;stroke:#3b3b3b;stroke-width:0.69999999;stroke-linecap:butt;stroke-linejoin:round;stroke-miterlimit:4;stroke-dasharray:none;stroke-dashoffset:0;stroke-opacity:1"
       id="rect1635"
       width="252.11011"
       height="14.627681"
       x="22.527384"
       y="124.75626" />
    <text
       xml:space="preserve"
       style="font-style:normal;font-weight:normal;font-size:8.46666622px;line-height:1.25;font-family:sans-serif;letter-spacing:0px;word-spacing:0px;fill:#000000;fill-opacity:1;stroke:none;stroke-width:0.26458332"
       x="26.722918"
       y="135.60408"
       id="text1639"><tspan
         sodipodi:role="line"
         id="tspan1637"
         x="26.722918"
         y="135.60408"
         style="font-size:8.46666622px;stroke-width:0.26458332">標題</tspan></text>
    <text
       xml:space="preserve"
       style="font-style:normal;font-weight:normal;font-size:8.46666622px;line-height:1.25;font-family:sans-serif;letter-spacing:0px;word-spacing:0px;fill:#000000;fill-opacity:1;stroke:none;stroke-width:0.26458332"
       x="83.608337"
       y="149.36244"
       id="text1643"><tspan
         sodipodi:role="line"
         id="tspan1641"
         x="83.608337"
         y="149.36244"
         style="font-size:8.46666622px;stroke-width:0.26458332">標籤</tspan></text>
    <text
       xml:space="preserve"
       style="font-style:normal;font-weight:normal;font-size:8.46666622px;line-height:1.25;font-family:sans-serif;letter-spacing:0px;word-spacing:0px;fill:#000000;fill-opacity:1;stroke:none;stroke-width:0.26458332"
       x="26.458332"
       y="165.2375"
       id="text1647"><tspan
         sodipodi:role="line"
         id="tspan1645"
         x="26.458332"
         y="165.2375"
         style="font-size:8.46666622px;stroke-width:0.26458332">題目描述</tspan></text>
    <rect
       style="opacity:1;vector-effect:none;fill:#ffffff;fill-opacity:1;fill-rule:nonzero;stroke:#3b3b3b;stroke-width:0.69999999;stroke-linecap:butt;stroke-linejoin:round;stroke-miterlimit:4;stroke-dasharray:none;stroke-dashoffset:0;stroke-opacity:1"
       id="rect1649"
       width="252.1479"
       height="38.262714"
       x="22.489584"
       y="228.74947" />
    <rect
       style="opacity:1;vector-effect:none;fill:#ffffff;fill-opacity:1;fill-rule:nonzero;stroke:#3b3b3b;stroke-width:0.69999999;stroke-linecap:butt;stroke-linejoin:round;stroke-miterlimit:4;stroke-dasharray:none;stroke-dashoffset:0;stroke-opacity:1"
       id="rect1651"
       width="58.964283"
       height="14.47648"
       x="22.527384"
       y="139.38394" />
    <text
       xml:space="preserve"
       style="font-style:normal;font-weight:normal;font-size:8.46666622px;line-height:1.25;font-family:sans-serif;letter-spacing:0px;word-spacing:0px;fill:#000000;fill-opacity:1;stroke:none;stroke-width:0.26458332"
       x="26.379501"
       y="150.13541"
       id="text1655"><tspan
         sodipodi:role="line"
         id="tspan1653"
         x="26.379501"
         y="150.13541"
         style="font-size:8.46666622px;stroke-width:0.26458332">分類</tspan></text>
    <text
       xml:space="preserve"
       style="font-style:normal;font-weight:normal;font-size:8.46666622px;line-height:1.25;font-family:sans-serif;letter-spacing:0px;word-spacing:0px;fill:#000000;fill-opacity:1;stroke:none;stroke-width:0.26458332"
       x="26.987499"
       y="239.45312"
       id="text1659"><tspan
         sodipodi:role="line"
         id="tspan1657"
         x="26.987499"
         y="239.45312"
         style="font-size:8.46666622px;stroke-width:0.26458332">答案設定</tspan></text>
    <circle
       style="opacity:1;vector-effect:none;fill:#ffffff;fill-opacity:1;fill-rule:nonzero;stroke:#3b3b3b;stroke-width:0.69999999;stroke-linecap:butt;stroke-linejoin:round;stroke-miterlimit:4;stroke-dasharray:none;stroke-dashoffset:0;stroke-opacity:1"
       id="path1661"
       cx="44.714584"
       cy="253.60834"
       r="3.175" />
    <circle
       style="opacity:1;vector-effect:none;fill:#ffffff;fill-opacity:1;fill-rule:nonzero;stroke:#3b3b3b;stroke-width:0.69999999;stroke-linecap:butt;stroke-linejoin:round;stroke-miterlimit:4;stroke-dasharray:none;stroke-dashoffset:0;stroke-opacity:1"
       id="path1663"
       cx="140.22917"
       cy="254.1375"
       r="3.175" />
    <text
       xml:space="preserve"
       style="font-style:normal;font-weight:normal;font-size:10.58333302px;line-height:1.25;font-family:sans-serif;letter-spacing:0px;word-spacing:0px;fill:#000000;fill-opacity:1;stroke:none;stroke-width:0.26458332"
       x="49.741669"
       y="257.57709"
       id="text1667"><tspan
         sodipodi:role="line"
         id="tspan1665"
         x="49.741669"
         y="257.57709"
         style="stroke-width:0.26458332">答案</tspan></text>
    <text
       xml:space="preserve"
       style="font-style:normal;font-weight:normal;font-size:10.58333302px;line-height:1.25;font-family:sans-serif;letter-spacing:0px;word-spacing:0px;fill:#000000;fill-opacity:1;stroke:none;stroke-width:0.26458332"
       x="146.31459"
       y="257.84164"
       id="text1671"><tspan
         sodipodi:role="line"
         id="tspan1669"
         x="146.31459"
         y="257.84164"
         style="stroke-width:0.26458332">手動</tspan></text>
    <rect
       style="opacity:1;vector-effect:none;fill:#ffffff;fill-opacity:1;fill-rule:nonzero;stroke:#3b3b3b;stroke-width:0.69999999;stroke-linecap:butt;stroke-linejoin:round;stroke-miterlimit:4;stroke-dasharray:none;stroke-dashoffset:0;stroke-opacity:1"
       id="rect1673"
       width="57.149998"
       height="11.1125"
       x="75.141663"
       y="248.84584" />
  </g>
</svg>
